<svg width="183" height="98" viewBox="0 0 183 98" fill="none" xmlns="http://www.w3.org/2000/svg">
<path fill-rule="evenodd" clip-rule="evenodd" d="M33.9852 0C-65.2411 71.8738 74.9259 139.905 171.801 64.8919C68.7594 117.566 -37.3795 61.2321 33.9852 0Z" fill="#34C88A"/>
<path d="M47.4224 37.9337H54.1343V50.817C52.4036 52.1265 50.4055 53.1262 48.14 53.8161C45.8746 54.5061 43.595 54.8581 41.3014 54.8581C38.0088 54.8581 35.0398 54.1541 32.4085 52.746C29.7772 51.338 27.7228 49.3949 26.2172 46.9027C24.7256 44.3965 23.9799 41.5804 23.9799 38.4405C23.9799 35.2866 24.7256 32.4705 26.2172 29.9642C27.7228 27.4721 29.7913 25.529 32.4507 24.121C35.1101 22.7129 38.1073 22.0089 41.4281 22.0089C44.2142 22.0089 46.7329 22.4736 49.0124 23.4169C51.2779 24.3462 53.1775 25.712 54.7253 27.5002L49.9974 31.851C47.732 29.4574 45.0022 28.2746 41.7939 28.2746C39.7677 28.2746 37.9666 28.697 36.4047 29.5418C34.8287 30.3867 33.6045 31.5835 32.7321 33.1182C31.8456 34.667 31.4094 36.4411 31.4094 38.4405C31.4094 40.3977 31.8456 42.1577 32.7321 43.6925C33.6045 45.2413 34.8146 46.4381 36.3765 47.3111C37.9384 48.17 39.7114 48.5924 41.7095 48.5924C43.8202 48.5924 45.7198 48.1418 47.4224 47.2407V37.9337ZM70.2739 29.5418C74.0591 29.5418 76.9577 30.443 78.984 32.2452C81.0102 34.0334 82.0233 36.7509 82.0233 40.3836V54.3089H75.3958V51.2817C74.0731 53.5486 71.5966 54.675 67.9663 54.675C66.0807 54.675 64.4625 54.3653 63.0836 53.7317C61.7187 53.084 60.6633 52.211 59.9316 51.0987C59.214 49.9722 58.8482 48.705 58.8482 47.2829C58.8482 45.016 59.7065 43.2278 61.4091 41.9324C63.1117 40.623 65.7571 39.9753 69.3171 39.9753H74.9455C74.9455 38.4405 74.4812 37.2437 73.5384 36.413C72.5957 35.5823 71.2026 35.1598 69.3171 35.1598C68.0225 35.1598 66.7421 35.3711 65.4897 35.7794C64.2374 36.1877 63.168 36.7368 62.2956 37.4408L59.7487 32.4846C61.0855 31.5553 62.6755 30.8231 64.5329 30.3163C66.4044 29.7953 68.304 29.5418 70.2739 29.5418ZM69.7252 49.9159C70.9353 49.9159 72.0187 49.6343 72.9474 49.0711C73.8902 48.522 74.5516 47.6912 74.9455 46.6071V44.1008H70.091C67.1923 44.1008 65.743 45.0582 65.743 46.9591C65.743 47.8743 66.0948 48.5924 66.8124 49.1133C67.516 49.6484 68.4869 49.9159 69.7252 49.9159ZM88.4116 22.0089H95.4894V23.2761V54.3089H88.4116V22.0089ZM109.138 34.5403V54.3089H102.061V34.5403C103.158 34.9486 104.354 35.1739 105.607 35.1739C106.845 35.1739 108.041 34.9486 109.138 34.5403ZM115.71 22.0089H122.759V54.2526L115.71 54.3089V22.0089ZM153.266 42.2C153.266 42.2844 153.209 42.9321 153.125 44.1008H134.663C135.001 45.6214 135.789 46.8183 137.027 47.6912C138.266 48.5642 139.814 49.0007 141.657 49.0007C142.923 49.0007 144.049 48.8177 145.034 48.4375C146.019 48.0573 146.934 47.466 147.778 46.6493L151.535 50.7326C149.241 53.3656 145.878 54.675 141.474 54.675C138.716 54.675 136.282 54.14 134.171 53.0699C132.06 51.9998 130.428 50.5073 129.274 48.5924C128.12 46.6915 127.543 44.5232 127.543 42.1155C127.543 39.7218 128.12 37.5676 129.246 35.6386C130.386 33.7237 131.934 32.2312 133.918 31.147C135.902 30.0769 138.111 29.5418 140.559 29.5418C142.951 29.5418 145.118 30.0487 147.046 31.0766C148.988 32.1044 150.508 33.5829 151.605 35.5119C152.703 37.4268 153.266 39.6655 153.266 42.2ZM140.616 34.8923C139.011 34.8923 137.661 35.3429 136.577 36.2581C135.48 37.1592 134.818 38.3983 134.579 39.9753H146.596C146.357 38.4405 145.695 37.2015 144.598 36.2722C143.514 35.357 142.177 34.8923 140.616 34.8923ZM169.588 54.675C167.013 54.675 164.705 54.14 162.665 53.0699C160.625 51.9998 159.035 50.5073 157.881 48.5924C156.741 46.6915 156.164 44.5232 156.164 42.1155C156.164 39.6937 156.741 37.5253 157.881 35.6245C159.035 33.7096 160.625 32.2312 162.665 31.147C164.705 30.0769 167.013 29.5418 169.588 29.5418C172.163 29.5418 174.457 30.0769 176.483 31.147C178.509 32.2312 180.085 33.7096 181.239 35.6245C182.393 37.5253 182.97 39.6937 182.97 42.1155C182.97 44.5232 182.393 46.6915 181.239 48.5924C180.085 50.5073 178.509 51.9998 176.483 53.0699C174.457 54.14 172.163 54.675 169.588 54.675ZM169.588 48.874C171.403 48.874 172.895 48.2544 174.049 47.0295C175.216 45.8045 175.793 44.1712 175.793 42.1155C175.793 40.0457 175.216 38.4124 174.049 37.1874C172.895 35.9624 171.403 35.3429 169.588 35.3429C167.773 35.3429 166.281 35.9624 165.099 37.1874C163.917 38.4124 163.326 40.0457 163.326 42.1155C163.326 44.1712 163.917 45.8045 165.099 47.0295C166.281 48.2544 167.773 48.874 169.588 48.874Z" fill="#163F59"/>
<path d="M105.617 29.8927C104.297 29.8927 103.233 29.5133 102.41 28.7544C101.587 27.9956 101.175 27.068 101.175 25.9438C101.175 24.8336 101.587 23.892 102.41 23.1332C103.233 22.3884 104.297 22.0089 105.617 22.0089C106.923 22.0089 107.987 22.3743 108.81 23.091C109.633 23.8218 110.045 24.7212 110.045 25.8173C110.045 26.9837 109.633 27.9674 108.81 28.7263C107.987 29.4992 106.923 29.8927 105.617 29.8927Z" fill="#163F59"/>
</svg>
