<svg width="199" height="192" viewBox="0 0 199 192" fill="none" xmlns="http://www.w3.org/2000/svg">
<path d="M33.3138 11.0039V11.0039L33.3138 82.309C33.3138 84.7439 35.2946 86.7148 37.7309 86.7039L70.202 86.5594C73.5785 86.5444 75.6791 82.8895 73.9908 79.967L69.7823 72.6818V72.6818C67.9608 69.5287 63.9265 68.4483 60.7716 70.2688V70.2688L60.3244 70.5268V70.5268C57.2061 72.3261 53.2187 71.2583 51.4184 68.1418C50.4851 66.5264 50.2894 64.5886 50.8808 62.8193V62.8193L57.6338 42.6156V42.6156C58.6898 39.456 61.9384 37.5803 65.2046 38.2441V38.2441L86.1089 42.4923V42.4923C87.9388 42.8642 89.5213 44.0026 90.4549 45.6189C92.2548 48.7346 91.1867 52.7187 88.0692 54.5176V54.5176L87.6206 54.7764V54.7764C84.4656 56.5969 83.3847 60.6288 85.2062 63.7819V63.7819L89.3519 70.9584C91.0401 73.8809 95.2575 73.8902 96.9588 70.9753L113.192 43.1616C114.419 41.0583 113.702 38.3585 111.592 37.141L49.8045 1.48844V1.48844C42.4753 -2.74065 33.3138 2.54571 33.3138 11.0039Z" fill="#34C88A"/>
<path d="M192.837 84.0689V84.0689L131.05 48.4164C128.94 47.1989 126.242 47.9279 125.033 50.042L108.923 78.2189C107.247 81.1488 109.364 84.7944 112.741 84.7944H123.356C125.785 84.7944 127.754 82.8267 127.754 80.3994V75.5649C127.754 73.1376 129.723 71.1699 132.152 71.1699L135.229 71.1699C136.488 71.1699 137.687 71.7091 138.521 72.6511L154.575 90.7687C156.049 92.4312 156.049 94.9309 154.577 96.5943L138.521 114.735C137.687 115.679 136.487 116.219 135.227 116.219H132.152C129.723 116.219 127.754 114.251 127.754 111.824V106.989C127.754 104.562 125.785 102.594 123.356 102.594H112.866C109.49 102.594 107.373 106.24 109.048 109.17L125.033 137.127C126.242 139.241 128.94 139.97 131.05 138.752L192.837 103.1V103.1C200.167 98.8707 200.167 88.298 192.837 84.0689Z" fill="#34C88A"/>
<path d="M49.774 185.546C49.774 185.546 49.774 185.546 49.774 185.546L111.562 149.893C113.672 148.676 114.389 145.976 113.161 143.873L96.8007 115.84C95.0994 112.925 90.882 112.935 89.1937 115.857L83.8858 125.045C82.6715 127.147 83.3921 129.835 85.4955 131.049L89.6846 133.466C91.788 134.68 92.5086 137.368 91.2943 139.47L89.7555 142.134C89.126 143.223 88.0595 143.991 86.826 144.242L63.0996 149.079C60.9223 149.523 58.7559 148.274 58.0506 146.168L50.3588 123.2C49.9589 122.006 50.0906 120.698 50.7205 119.608L52.2585 116.946C53.4728 114.844 56.1623 114.123 58.2656 115.337L62.4548 117.754C64.5581 118.968 67.2476 118.248 68.4619 116.146L73.707 107.066C75.3953 104.144 73.2947 100.489 69.9183 100.474L37.7004 100.33C35.2641 100.319 33.2833 102.29 33.2833 104.725L33.2833 176.03C33.2833 176.03 33.2833 176.03 33.2833 176.03C33.2833 184.488 42.4448 189.775 49.774 185.546Z" fill="#163F59"/>
</svg>
