<svg width="131" height="212" viewBox="0 0 131 212" fill="none" xmlns="http://www.w3.org/2000/svg">
<path fill-rule="evenodd" clip-rule="evenodd" d="M3.20607e-05 115.454C23.0622 127.701 47.127 140.522 65.7129 150.441L130.889 115.454C107.289 150.513 87.6291 179.699 65.7129 212C43.7608 179.77 19.5169 144.21 3.20607e-05 115.454ZM2.50676 105.785L65.7844 72.0155L128.238 105.534L65.8203 139.34L2.50676 105.785ZM65.7128 61.2007L0 95.7939L65.4263 0L130.888 96.0088L65.7129 61.2007L65.7128 61.2007Z" fill="#3AB83A"/>
<path fill-rule="evenodd" clip-rule="evenodd" d="M65.7129 150.441L130.889 115.454C107.289 150.513 65.7129 212 65.7129 212V150.441V150.441ZM65.7845 72.0155L128.239 105.534L65.8203 139.34L65.7845 72.0155V72.0155V72.0155ZM65.7129 61.2007L65.4264 0L130.889 96.0088L65.7129 61.2007L65.7129 61.2007L65.7129 61.2007Z" fill="#0B8311"/>
<path fill-rule="evenodd" clip-rule="evenodd" d="M2.50677 105.785L65.7845 110.978L128.239 105.57L65.8203 139.376L2.50677 105.785Z" fill="#0B8311"/>
<path fill-rule="evenodd" clip-rule="evenodd" d="M65.7845 110.978L128.239 105.57L65.8203 139.376L65.7845 110.978V110.978Z" fill="#146714"/>
</svg>
