<svg width="31" height="39" viewBox="0 0 31 39" fill="none" xmlns="http://www.w3.org/2000/svg">
<path fill-rule="evenodd" clip-rule="evenodd" d="M15.5 39C24.0604 39 31 32.2404 31 23.9021C31 17.8518 27.8325 14.3271 24.8563 11.0151C22.4142 8.2976 20.1009 5.72337 19.7717 2.01488C19.6934 1.1326 18.649 0.555156 17.9865 1.14307C10.5135 7.77475 11.0162 14.5212 11.292 18.2229C11.31 18.4642 11.327 18.6926 11.3408 18.9072C11.3717 19.3886 11.0254 19.8056 10.5443 19.7708C8.78962 19.6439 6.15868 18.3628 5.01073 15.1381C4.73571 14.3655 3.73398 14.04 3.22453 14.6826C1.20277 17.2329 0 20.4307 0 23.9021C0 32.2404 6.93959 39 15.5 39ZM15.5 37.6275C19.6134 37.6275 22.9481 34.597 22.9481 30.8588C22.9481 28.1463 21.426 26.5661 19.9959 25.0813C19.1243 24.1765 18.2869 23.307 17.8489 22.2384C17.5173 21.4294 16.4308 20.8354 15.8165 21.4575C13.2397 24.0669 13.3461 26.6177 13.4651 28.1503C13.5028 28.6357 13.1545 29.0532 12.6816 28.937C12.102 28.7946 11.4338 28.438 10.9348 27.787C10.4482 27.1521 9.46106 26.8203 9.03424 27.4967C8.40926 28.4873 8.05195 29.6351 8.05195 30.8588C8.05195 34.597 11.3866 37.6275 15.5 37.6275Z" fill="#868D95"/>
</svg>
