<svg width="27" height="38" viewBox="0 0 27 38" fill="none" xmlns="http://www.w3.org/2000/svg">
<path d="M5.19231 18.4595C8.63348 18.4595 11.4231 21.3635 11.4231 24.9459C11.4231 28.5283 8.63348 31.4324 5.19231 31.4324C4.23135 31.4324 3.32121 31.206 2.50843 30.8015C1.61352 30.3562 9.28614e-08 30.9568 7.96824e-08 31.9564L2.6369e-08 36C1.18058e-08 37.1046 0.895431 38 2 38L25 38C26.1046 38 27 37.1046 27 36L27 13.8919C27 12.7873 26.1046 11.8919 25 11.8919L20.1473 11.8919C19.1668 11.8919 18.5792 10.3723 19.0205 9.49689C19.4741 8.59723 19.7308 7.57306 19.7308 6.48649C19.7308 2.90409 16.9412 2.02021e-07 13.5 1.60986e-07C10.0588 1.1995e-07 7.26923 2.90409 7.26923 6.48649C7.26923 7.57306 7.52586 8.59723 7.97946 9.49689C8.42085 10.3723 7.83316 11.8919 6.85274 11.8919L2 11.8919C0.895431 11.8919 3.2338e-07 12.7873 3.08817e-07 13.8919L2.55503e-07 17.9355C2.42324e-07 18.9351 1.61352 19.5357 2.50843 19.0904C3.32121 18.6859 4.23135 18.4595 5.19231 18.4595Z" fill="#868D95"/>
</svg>
